<?xml version="1.0" standalone="no"?>
<!DOCTYPE svg PUBLIC "-//W3C//DTD SVG 20010904//EN"
 "http://www.w3.org/TR/2001/REC-SVG-20010904/DTD/svg10.dtd">
<svg version="1.0" xmlns="http://www.w3.org/2000/svg"
 width="967.000000pt" height="967.000000pt" viewBox="0 0 967.000000 967.000000"
 preserveAspectRatio="xMidYMid meet">
<metadata>
Created by potrace 1.14, written by Peter Selinger 2001-2017
</metadata>
<g transform="translate(0.000000,967.000000) scale(0.100000,-0.100000)"
fill="#000000" stroke="none">
<path d="M3421 9467 c-41 -13 -104 -71 -122 -114 l-14 -33 -88 0 c-80 0 -93
-3 -150 -34 -34 -18 -210 -109 -392 -201 -338 -171 -699 -356 -975 -497 -85
-44 -160 -84 -167 -89 -6 -6 -10 -22 -8 -37 2 -15 6 -85 10 -157 3 -71 8 -169
11 -217 5 -79 4 -87 -14 -92 -50 -16 -122 -117 -122 -171 0 -19 -8 -25 -42
-33 -24 -5 -113 -28 -198 -51 -85 -22 -211 -56 -279 -74 l-125 -32 -373 -1122
-374 -1122 85 -132 84 -131 -19 -37 c-34 -66 -29 -157 11 -213 11 -15 20 -31
20 -37 0 -5 -36 -75 -81 -156 -71 -130 -79 -150 -71 -175 16 -44 362 -883 372
-902 14 -26 13 -34 -15 -77 -34 -51 -43 -127 -21 -184 46 -120 183 -174 299
-118 l47 23 133 -82 c72 -45 159 -99 191 -119 79 -48 116 -84 116 -114 0 -13
14 -44 32 -68 l31 -43 -72 -141 c-39 -77 -71 -146 -71 -154 0 -11 51 -82 116
-160 7 -9 173 -216 368 -460 l354 -443 168 -89 c93 -49 188 -99 211 -112 37
-19 43 -26 43 -55 0 -42 20 -88 55 -131 l29 -33 -67 -134 c-66 -133 -67 -134
-44 -145 12 -6 58 -31 102 -54 111 -59 336 -175 555 -287 173 -89 188 -94 240
-92 151 5 640 5 649 -1 6 -3 11 -12 11 -20 0 -23 90 -94 134 -106 202 -54 354
171 229 338 l-24 33 102 177 c154 270 169 296 181 320 9 19 19 23 58 23 26 0
62 3 79 6 41 9 118 77 137 123 39 92 5 202 -78 256 l-47 30 0 212 -1 212 28
15 c70 37 114 126 101 208 -10 64 -35 106 -86 143 l-42 30 0 1467 c-1 1388 0
1467 17 1473 29 10 69 51 91 94 41 79 25 175 -40 240 -23 23 -48 41 -55 41
-12 0 -14 71 -14 429 0 407 1 430 18 435 29 10 82 66 98 105 10 24 14 57 12
97 -4 71 -34 123 -93 163 l-35 24 0 198 c0 121 4 199 10 199 20 0 84 67 103
108 40 92 11 198 -70 255 l-43 31 0 550 0 551 -81 82 c-79 81 -81 83 -70 115
35 114 6 202 -91 265 -33 22 -52 27 -107 27 -43 1 -74 -4 -84 -13 -15 -11 -21
-8 -53 24 l-36 37 -203 -1 -203 -2 -10 28 c-32 92 -162 145 -271 110z"/>
<path d="M6084 9461 c-41 -19 -114 -94 -114 -118 0 -12 -37 -14 -204 -12
l-204 2 -32 -37 c-24 -27 -36 -34 -48 -27 -66 34 -167 19 -230 -35 -69 -59
-90 -128 -66 -219 l15 -59 -80 -80 -80 -81 0 -500 c0 -275 0 -523 -1 -551 0
-48 -2 -52 -44 -82 -111 -80 -117 -237 -13 -329 19 -17 40 -32 46 -34 7 -3 11
-56 11 -154 2 -270 5 -248 -35 -269 -78 -42 -119 -170 -82 -256 18 -40 70 -96
98 -105 22 -7 20 40 20 -480 0 -179 0 -336 -1 -349 0 -17 -12 -33 -40 -53 -84
-60 -116 -177 -70 -266 23 -45 60 -83 91 -92 17 -6 19 -17 19 -98 1 -129 1
-2720 0 -2788 0 -54 -1 -56 -46 -87 -124 -88 -108 -282 31 -359 14 -8 18 -94
16 -335 l-1 -97 -35 -16 c-72 -35 -120 -136 -104 -221 19 -102 109 -174 218
-174 l56 -1 148 -260 149 -260 -25 -32 c-72 -96 -59 -222 29 -295 110 -91 263
-58 339 72 9 16 37 17 310 16 165 -1 323 -3 350 -4 56 -3 53 -5 810 390 55 29
100 55 99 59 0 4 -29 65 -64 136 l-64 129 21 22 c34 38 63 100 63 139 0 35 1
36 118 97 248 129 287 151 308 171 41 39 829 1032 833 1049 2 9 -29 80 -70
158 l-73 140 26 35 c15 19 32 55 39 80 12 44 14 46 202 164 249 157 234 150
260 132 22 -14 66 -26 114 -32 77 -8 178 60 209 140 22 59 14 134 -21 186 -14
21 -25 42 -25 46 0 4 88 220 195 479 107 260 195 475 195 479 0 3 -36 72 -80
152 -44 80 -80 150 -80 155 0 6 9 22 20 37 42 60 44 165 5 225 -14 21 -11 30
71 155 l85 132 -374 1122 -373 1122 -322 85 c-297 78 -322 86 -322 106 0 58
-68 153 -122 170 -19 6 -20 12 -14 98 3 50 8 145 11 211 4 66 8 136 10 157 l4
36 -152 77 c-84 43 -242 124 -352 180 -110 56 -344 176 -520 265 -176 90 -380
194 -453 231 l-133 69 -88 0 c-87 0 -89 1 -95 26 -4 14 -26 44 -49 67 -66 66
-161 85 -243 48z"/>
</g>
</svg>
